<mxfile host="app.diagrams.net" modified="2023-03-24T18:43:15.958Z" agent="Mozilla/5.0 (Windows NT 10.0; Win64; x64) AppleWebKit/537.36 (KHTML, like Gecko) Chrome/111.0.0.0 Safari/537.36 Edg/111.0.1661.51" etag="GQ09O5tS9ESCldT-AqRD" version="21.1.1" type="device">
  <diagram name="Страница 1" id="hz0bjRIP-DLvdcSlmQYx">
    <mxGraphModel dx="792" dy="1138" grid="1" gridSize="10" guides="1" tooltips="1" connect="1" arrows="1" fold="1" page="1" pageScale="1" pageWidth="827" pageHeight="1169" math="0" shadow="0">
      <root>
        <mxCell id="0" />
        <mxCell id="1" parent="0" />
        <mxCell id="G3iT4qvrDOa_sK6JwUPX-3" style="edgeStyle=orthogonalEdgeStyle;rounded=0;orthogonalLoop=1;jettySize=auto;html=1;entryX=0.5;entryY=0;entryDx=0;entryDy=0;" edge="1" parent="1" source="G3iT4qvrDOa_sK6JwUPX-1" target="G3iT4qvrDOa_sK6JwUPX-2">
          <mxGeometry relative="1" as="geometry" />
        </mxCell>
        <mxCell id="G3iT4qvrDOa_sK6JwUPX-1" value="Начало&lt;br&gt;changeTrain" style="ellipse;whiteSpace=wrap;html=1;" vertex="1" parent="1">
          <mxGeometry x="354" y="50" width="120" height="80" as="geometry" />
        </mxCell>
        <mxCell id="G3iT4qvrDOa_sK6JwUPX-5" style="edgeStyle=orthogonalEdgeStyle;rounded=0;orthogonalLoop=1;jettySize=auto;html=1;entryX=0.5;entryY=0;entryDx=0;entryDy=0;" edge="1" parent="1" source="G3iT4qvrDOa_sK6JwUPX-2" target="G3iT4qvrDOa_sK6JwUPX-4">
          <mxGeometry relative="1" as="geometry" />
        </mxCell>
        <mxCell id="G3iT4qvrDOa_sK6JwUPX-2" value="&lt;div style=&quot;font-size: 14px; line-height: 19px;&quot;&gt;&lt;span style=&quot;background-color: rgb(255, 255, 255);&quot;&gt;fseek(file, index*sizeof(struct TRAIN), 0)&lt;/span&gt;&lt;/div&gt;" style="rounded=0;whiteSpace=wrap;html=1;" vertex="1" parent="1">
          <mxGeometry x="354" y="160" width="120" height="60" as="geometry" />
        </mxCell>
        <mxCell id="G3iT4qvrDOa_sK6JwUPX-7" style="edgeStyle=orthogonalEdgeStyle;rounded=0;orthogonalLoop=1;jettySize=auto;html=1;" edge="1" parent="1" source="G3iT4qvrDOa_sK6JwUPX-4" target="G3iT4qvrDOa_sK6JwUPX-6">
          <mxGeometry relative="1" as="geometry" />
        </mxCell>
        <mxCell id="G3iT4qvrDOa_sK6JwUPX-4" value="newTrain = setTrain()" style="rounded=0;whiteSpace=wrap;html=1;" vertex="1" parent="1">
          <mxGeometry x="354" y="250" width="120" height="60" as="geometry" />
        </mxCell>
        <mxCell id="G3iT4qvrDOa_sK6JwUPX-9" style="edgeStyle=orthogonalEdgeStyle;rounded=0;orthogonalLoop=1;jettySize=auto;html=1;" edge="1" parent="1" source="G3iT4qvrDOa_sK6JwUPX-6" target="G3iT4qvrDOa_sK6JwUPX-8">
          <mxGeometry relative="1" as="geometry" />
        </mxCell>
        <mxCell id="G3iT4qvrDOa_sK6JwUPX-6" value="&lt;div style=&quot;font-size: 14px; line-height: 19px;&quot;&gt;&lt;span style=&quot;background-color: rgb(255, 255, 255);&quot;&gt;fwrite(&amp;amp;newTrain, sizeof(struct TRAIN), 1, file)&lt;/span&gt;&lt;/div&gt;" style="rounded=0;whiteSpace=wrap;html=1;" vertex="1" parent="1">
          <mxGeometry x="354" y="340" width="120" height="60" as="geometry" />
        </mxCell>
        <mxCell id="G3iT4qvrDOa_sK6JwUPX-8" value="Конец" style="ellipse;whiteSpace=wrap;html=1;" vertex="1" parent="1">
          <mxGeometry x="354" y="430" width="120" height="80" as="geometry" />
        </mxCell>
      </root>
    </mxGraphModel>
  </diagram>
</mxfile>
